<svg xmlns="http://www.w3.org/2000/svg" version="1.1" viewBox="-5.0 -10.0 110.0 135.0">
 <path d="m82.996 15.992c-0.074219-1.3672-0.57031-2.3164-1.4727-2.8086-0.875-0.48047-1.9062-0.39844-3.0625 0.23828-0.78906 0.4375-1.6445 1.1602-2.5312 2.0703-0.003907-0.4375-0.35547-0.78906-0.79297-0.78906h-3.5625v-3.5391c0-0.4375-0.35547-0.79297-0.79297-0.79297h-52.996c-0.4375 0-0.79297 0.35547-0.79297 0.79297v73.344c0 0.4375 0.35547 0.79297 0.79297 0.79297h3.5625v3.5391c0 0.4375 0.35547 0.79297 0.79297 0.79297h53c0.4375 0 0.79297-0.35547 0.79297-0.79297l0.03125-54.211c3.5391-6.5781 7.2539-14.547 7.0312-18.633zm-30.398 49.98c-0.050781 0.089844-0.12891 0.125-0.17188 0.13672s-0.12891 0.027344-0.21875-0.023437c-0.089843-0.050782-0.125-0.12891-0.13672-0.17188-0.011718-0.042968-0.027343-0.12891 0.023438-0.21875 0.050781-0.09375 0.15234-0.14844 0.25-0.14844 0.046875 0 0.09375 0.011719 0.13672 0.035156 0.13672 0.078125 0.1875 0.25 0.11328 0.39062zm-0.36719 1.7188c0.039062 0.003906 0.074219 0.015625 0.11328 0.015625 0.17578 0 0.35156-0.023437 0.52734-0.074219 0.48047-0.14062 0.875-0.45703 1.1172-0.89844 0.49609-0.90625 0.16406-2.0469-0.73828-2.543-0.90625-0.49609-2.0469-0.16406-2.543 0.73828-0.24219 0.4375-0.29688 0.94531-0.15625 1.4258 0.0625 0.21094 0.16406 0.40234 0.28906 0.57812l-2.8555 5.1992c0.1875-2.207 0.14062-4.2539-0.14062-6.1172l7.2539-8.7422c0.32812 0.25781 0.76953 0.55078 1.4023 0.90625 0.85547 0.48047 1.4883 0.76953 1.9688 0.94141l-3.9492 10.543c-1.6523 0.72656-3.332 1.7344-5.0156 2.9961l2.7266-4.9648zm3.6328-11.586v-0.003907 0.003907zm3.4023 1.6094c-0.77344-0.20703-2.8125-1.3125-3.3711-1.8281 0.16797-0.89062 1.0117-3.1836 2.3516-6.3281 1.5742 1.3164 3.2773 2.25 5.0742 2.7891-1.918 2.8008-3.4023 4.7578-4.0547 5.3711zm4.9727-6.7266c-0.019531-0.007812-0.039062-0.023437-0.058593-0.027343-1.8711-0.48047-3.6406-1.457-5.2656-2.8984-0.003906-0.003906-0.011718-0.003906-0.015624-0.007812 1.5273-3.4727 3.5508-7.7539 5.9102-12.301 1.9961-3.8477 3.9062-7.25 5.6875-10.152 2.0078 1.7461 4.1836 2.9453 6.4844 3.5781-1.5195 3.1055-3.3984 6.5938-5.6172 10.402-2.5 4.2852-5.0117 8.2578-7.125 11.41zm14.984-36.188c0.65234-0.35938 1.168-0.4375 1.5352-0.23828 0.39063 0.21484 0.60938 0.72266 0.65234 1.5078 0.12109 2.2227-1.1992 6.2773-3.7305 11.652-2.2461-0.5625-4.375-1.7344-6.3359-3.4883 3.2109-5.0664 5.9414-8.3672 7.8789-9.4336zm-60.645 68.914v-71.762h51.414v2.7461h-32.145c-0.066406-0.019531-0.12891-0.039063-0.19922-0.039063-0.13672 0-0.26563 0.035156-0.37891 0.09375-0.09375 0.03125-0.17969 0.078125-0.25781 0.14844l-15.383 13.047c-0.011718 0.007812-0.015625 0.019531-0.023437 0.027343-0.023438 0.019532-0.039063 0.042969-0.058594 0.066407-0.042969 0.050781-0.078125 0.10156-0.10938 0.16016-0.015625 0.027344-0.027344 0.054687-0.035156 0.085937-0.023438 0.070313-0.039063 0.14063-0.042969 0.21875 0 0.015626-0.007813 0.03125-0.007813 0.046876v55.156h-2.7695zm18.277-66.602v10.598l-12.547 0.042968zm37.492 70.93-51.414 0.003906v-58.699l14.719-0.050781c0.4375 0 0.78906-0.35547 0.78906-0.79297v-12.215h35.906v0.98828c-2.4766 3.0234-5.0898 7.1953-7.3516 11.156-0.046875-0.39453-0.36719-0.70312-0.77344-0.70312h-25.023c-0.4375 0-0.79297 0.35547-0.79297 0.79297s0.35547 0.79297 0.79297 0.79297h25.023c0.10938 0 0.21094-0.023437 0.30859-0.0625-1.1758 2.0859-2.2422 4.0859-3.125 5.7773-4.5508 8.7656-8.6562 18.148-9.0781 20.691l-7.9336 9.5625c-0.14844 0.17969-0.21094 0.41016-0.17188 0.64062 0.49219 2.8867 0.35938 6.2812-0.39453 10.09-0.003906 0.023437 0.003906 0.042969 0 0.066406-0.007813 0.054688-0.003906 0.10547 0 0.16016 0.003906 0.050781 0.011719 0.097656 0.023437 0.14453 0.015626 0.046875 0.035157 0.089843 0.058594 0.13672 0.023438 0.050781 0.050782 0.09375 0.085938 0.13672 0.015625 0.019532 0.019531 0.039063 0.035156 0.054688 0.019531 0.019531 0.042969 0.027344 0.066406 0.042968 0.042969 0.035157 0.085938 0.066407 0.13672 0.09375 0.015625 0.011719 0.027344 0.027344 0.046875 0.039063 0.003906 0.003906 0.011719 0 0.015625 0.003906 0.007813 0.003907 0.011719 0.003907 0.019531 0.003907 0.027344 0.015624 0.058594 0.011718 0.085938 0.023437 0.019531 0.003906 0.03125 0.015625 0.050781 0.019531 0.015625 0.003906 0.03125 0.003906 0.050781 0.003906 0.054688 0.011719 0.10547 0.039063 0.16016 0.039063 0.28125 0 0.55078-0.14844 0.69531-0.41016l0.027344-0.050781c2.7305-2.5664 5.4414-4.4336 8.0703-5.5352 0.20312-0.085937 0.35938-0.25 0.43359-0.45312l4.332-11.559c1.8477-1.6406 7.6289-10.211 12.516-18.594 0.51172-0.875 1.0664-1.8438 1.6406-2.8711zm-1.6484-12.551c0.15625 0.41016-0.046875 0.86719-0.45312 1.0234-3.2266 1.2461-5.8008 1.8711-7.6992 1.8711-1.5977 0-2.7227-0.44141-3.3594-1.3242-0.98438-1.3594-0.34766-3.2812 0.72266-4.5781 0.40234-0.48828 0.67969-0.86328 0.875-1.1445-1.2148 0.49609-3.2773 1.6133-4.8945 2.4922-3.3633 1.8203-6.8438 3.7031-8.8242 3.9688-0.43359 0.058594-0.83203-0.24609-0.89062-0.67969-0.058593-0.43359 0.24609-0.83203 0.67969-0.89062 1.6914-0.22656 5.1914-2.1211 8.2812-3.7891 5.0156-2.7148 6.6406-3.5273 7.4492-2.5508 0.63672 0.77344-0.019532 1.8633-1.4492 3.6016-0.67969 0.82812-1.125 2.0039-0.66016 2.6445 0.67188 0.92969 3.4414 1.1289 9.2031-1.0977 0.41016-0.15625 0.86719 0.046876 1.0234 0.45313zm-41.457-36.164c0-0.4375 0.35547-0.79297 0.79297-0.79297h26.676c0.4375 0 0.79297 0.35547 0.79297 0.79297s-0.35547 0.79297-0.79297 0.79297h-26.676c-0.4375 0-0.79297-0.35547-0.79297-0.79297zm-0.082032 10.805c0-0.4375 0.35547-0.79297 0.79297-0.79297h21.867c0.4375 0 0.79297 0.35547 0.79297 0.79297s-0.35547 0.79297-0.79297 0.79297h-21.867c-0.4375 0-0.79297-0.35547-0.79297-0.79297zm15.516 11.598h-14.805c-0.4375 0-0.79297-0.35547-0.79297-0.79297s0.35547-0.79297 0.79297-0.79297h14.805c0.4375 0 0.79297 0.35547 0.79297 0.79297s-0.35547 0.79297-0.79297 0.79297z"/>
<text x="0.0" y="117.5" font-size="5.0" font-weight="bold" font-family="Arbeit Regular, Helvetica, Arial-Unicode, Arial, Sans-serif" fill="#000000">Created by Ar2ar</text><text x="0.0" y="122.5" font-size="5.0" font-weight="bold" font-family="Arbeit Regular, Helvetica, Arial-Unicode, Arial, Sans-serif" fill="#000000">from Noun Project</text></svg>